<?xml version="1.0" encoding="utf-8"?>
<svg version="1.2" baseProfile="tiny" id="Layer_1" xmlns="http://www.w3.org/2000/svg" xmlns:xlink="http://www.w3.org/1999/xlink"
	 x="0px" y="0px" width="128.007px" height="26px" viewBox="0 0 128.007 26" xml:space="preserve">
<path d="M25.5,13c0,6.903-5.596,12.5-12.5,12.5C6.097,25.5,0.5,19.904,0.5,13C0.5,6.097,6.097,0.5,13,0.5
	C19.904,0.5,25.5,6.097,25.5,13z M13,4.061c-4.938,0-8.939,4.002-8.939,8.94c0,4.937,4.002,8.939,8.939,8.939
	s8.939-4.002,8.939-8.939C21.939,8.063,17.938,4.061,13,4.061z"/>
<path d="M101.783,11.537c1.667-0.472,3.52-0.759,5.301-1.116c0.05-0.373,0.137-0.915,0.558-1.256
	c0.539,0.02,1.225-0.109,1.395,0.279c0.408,0.104,0.271,0.754,0.838,0.698c-0.006,1.028,0.533,1.512,0.558,2.511
	c0.456,0.283,0.767-0.572,1.116-0.837c0.276-0.823-0.06-1.706,0.14-2.372c0.958,0.152,0.944,1.31,1.116,2.093
	c0.505,2.313,1.095,5.324,1.255,8.091c0.416,0.361,0.688-0.607,1.117-0.698c0.367-0.328,0.791-0.602,1.254-0.837
	c-0.594-1.717-0.977-3.889-1.534-5.998c-0.321-1.213-0.434-2.432-1.535-2.93c0.233-1.115-0.757-1.008-0.557-2.092
	c0.742-0.391,1.112,0.393,1.534,0.697c0.479,0.348,0.97,0.656,1.394,0.977c0.687,0.521,1.433,1.036,2.093,1.674
	c0.291,0.28,0.556,0.454,0.978,0.698c0.125,0.072,0.184,0.22,0.278,0.278c0.191,0.118,0.534,0.179,0.697,0.279
	c0.211,0.13,0.355,0.292,0.559,0.418c0.099,0.062,0.31,0.057,0.418,0.14c0.058,0.042,0.087,0.248,0.14,0.279
	c0.877,0.488,1.82,0.829,2.651,1.255c0.65,0.333,1.302,0.743,1.952,1.116c0.872,0.498,2.41,0.995,2.511,2.37
	c-0.867,1.364-2.857,0.369-4.185,0.279c-2.244-0.149-4.274,0.359-5.999,1.117c-1.332,0.586-2.438,1.478-3.625,1.953
	c-0.018,1.168,0.006,2.585-0.42,3.488c-0.24,0.509-0.466,1.188-1.254,0.977c-0.261-1.653,0.305-3.296,0.139-5.022
	c-0.188-1.927-1-3.614-1.535-5.021c-0.377,1.164,0.39,3.092-0.278,4.185c-1.678,0.431-2.999-0.529-4.185-1.117
	c-1.244-0.615-2.499-1.236-3.767-1.813c-0.07,0.569,0.118,1.212,0.278,1.813c0.434,1.625,1.341,3.745,1.117,5.72
	c-0.476,0.029-0.594-0.026-0.837-0.279c-0.244-0.254-0.166-0.638-0.28-0.837c-0.662-1.169-1.114-2.362-1.812-3.627
	c-0.258-0.465-0.485-0.8-0.837-1.256c-0.747-0.964-1.647-1.861-2.651-2.789c-0.453-0.42-0.84-0.821-1.256-1.255
	c-0.597-0.625-0.781-2.281-1.535-3.069c-0.044,0.894,0.236,2.085,0.141,3.626c-0.021,0.332-0.177,0.841-0.141,1.117
	c0.153,1.118,1.623,2.271,0.978,3.905c-1.524,0.278-2.537-1.062-3.486-1.814c-1.13-0.254-1.926-1.081-2.931-1.534
	c-1.058-0.476-2.184-0.66-3.487-0.976c-0.231,0.487-0.163,1.184-0.14,1.673c0.023,0.467,0.01,1.192,0.14,1.535
	c0.271,0.711,1.345,0.837,1.116,1.674c-0.658,0.424-1.365-0.203-1.954-0.419c-2.593-0.956-5.496-1.985-7.812-3.348
	c-0.125,0.63,0.36,1.559,0.559,2.511c0.191,0.918,0.559,2.065-0.14,2.65c-0.605-0.089-0.887-0.773-1.115-1.255
	c-0.096-0.201-0.176-0.575-0.279-0.837c-0.3-0.765-0.594-1.544-0.977-2.372c-0.228-0.488-0.316-1.147-0.837-1.394
	c0.293,0.683,0.526,1.424,0.418,2.51c-0.967,1.455-3.949-0.505-4.881-1.116c-0.474-0.054-0.221,0.618-0.838,0.418
	c-1.485-0.003-2.571-0.404-4.045-0.418c-0.521,0.596-0.205,2.028-1.117,2.232c-0.583,0.007-0.169-0.641-0.14-0.977
	c0.042-0.478,0.043-0.92,0.14-1.255c-0.378-0.468-1.133-0.235-1.674-0.279c-1.985-0.162-5.352-0.273-7.532,0
	c0.709,0.455,1.526,0.799,1.953,1.534c-0.017,0.402,0.076,0.914-0.14,1.117c0.308,0.796,1.039,1.196,1.674,1.674
	c0.168,0.127,0.224,0.289,0.418,0.418c0.385,0.258,1.255,0.444,1.394,1.116c-0.73-0.114,0.312,0.673-0.417,0.558
	c0.089,0.509-0.095,0.743-0.279,0.977c-1.081-0.103-1.655-1.027-2.232-1.674c-0.619-0.692-1.153-1.454-1.814-2.093
	c-1.448,0.25-3.538,0.958-5.86,1.116c-2.115,0.144-3.683,0.137-5.439,0c-1.083-0.083-3.508-0.262-3.348-1.395
	c0.124-0.88,1.555-0.562,2.092-0.977c0.509,0.188,0.933,0.463,1.116,0.977c2.265,0.118,4.208-0.199,5.858-0.837
	c1.081-0.418,1.94-1.08,2.93-1.535c-0.153-0.357-0.75-0.273-1.255-0.279c-0.486-0.706-2.114-0.667-3.347-0.837
	c-2.709-0.368-5.571-0.678-8.372-1.115c-0.714-0.111-1.442-0.258-2.37-0.418c-0.861-0.149-2.175-0.357-3.348-0.559
	c-0.645-0.111-1.526-0.084-1.953-0.697c-0.052-0.977,1.083-1.179,1.813-1.396c0.383-0.113,0.974-0.152,1.535-0.279
	c3.223-0.732,7.146-1.088,10.043-2.512c0.641-0.314,1.034-0.796,1.535-0.837c1.343-0.109,1.995,1.009,3.067,0.977
	c0.228-0.97-0.703-3.358,0.419-4.046c1.696-0.201,2.841,0.958,3.906,1.814c0.884,0.711,1.782,1.369,2.791,2.092
	c0.046,0.035,0.096,0.26,0.14,0.279c0.573,0.259,1.2,0.809,1.813,1.256c1.542,1.127,3.241,2.24,5.16,3.209
	c0.384-1.918-1.704-1.366-1.674-2.931c0.367-0.447,1.145-0.498,1.814-0.278c0.057-1.322-0.074-2.851,0-4.325
	c0.019-0.372-0.174-0.974,0.279-1.116c0.904-0.188,0.879,0.702,1.255,1.256c0.914,1.349,2.291,2.316,3.488,3.488
	c0.738,0.723,1.401,1.497,2.23,2.232c0.338,0.297,0.897,0.987,1.674,0.837c0.482-0.477-0.078-1.026-0.278-1.535
	c-0.191-0.49-0.484-1.045-0.698-1.535c-0.116-0.272-0.127-0.633-0.278-0.977c-0.245-0.558-0.986-1.552-0.279-2.511
	c2.278,0.095,4.109,0.933,5.999,1.534c1.837,0.585,3.696,1.171,5.719,1.675c-0.177-0.421-0.092-0.819-0.418-1.117
	c-0.279-0.254-1.23-0.358-1.254-1.116c0.91-0.386,1.932,0.038,2.37,0.558c4.292,0.962,7.237,3.272,9.765,5.999
	c-0.051-1.933,0.001-4.245-0.698-5.58c-0.397-0.762-1.3-0.926-1.394-1.813c0.576-0.206,0.949-0.219,1.394,0
	c0.345,0.17,0.485,0.754,0.698,0.977c1.519,1.569,3.396,3.203,4.743,5.022c1.032-0.361,0.952-2.353,0.838-3.767
	c-0.134-1.617-0.553-2.841-1.814-3.209c-1.004-0.29-2.231,0.228-3.348-0.418c0.142-0.582,0.923-0.83,1.533-0.975
	c1.663-0.399,3.146-0.064,3.907,0.835c0.094,0.112,0.044,0.293,0.14,0.419c0.088,0.119,0.445,0.536,0.559,0.837
	C101.275,7.926,101.432,10.177,101.783,11.537z M73.325,16c0.213-0.639-0.83-0.738-0.977-0.557
	C72.753,15.549,72.71,16.104,73.325,16z M65.513,14.746c0.888,0.091,1.779,0.914,2.512,0.698c-0.913-0.437-1.552-1.147-2.512-1.534
	C65.513,14.188,65.513,14.467,65.513,14.746z M79.462,14.048C79.666,13.961,79.45,13.879,79.462,14.048 M79.462,14.048
	c0,0.092,0,0.186,0,0.278c1.606,1.51,3.595,2.637,5.72,3.626c-0.052-1.02-0.301-1.839-0.419-2.789
	c-0.086-0.379-0.581-0.348-0.558-0.837c0.449-0.311,0.248-1.144,0.139-1.674c-1.44,0.076-3.013,0.798-4.184,1.116
	C80.138,13.775,79.024,13.588,79.462,14.048 M117.685,17.255c1.751-0.621,3.052-1.69,4.743-2.37
	c-0.071-0.453-0.642-0.645-0.977-0.837c-1.258-0.727-2.511-1.132-3.488-1.954c-0.14,0-0.278,0-0.418,0
	C117.084,13.744,117.368,15.644,117.685,17.255z M44.31,12.095c-1.302,0.085-2.634-0.057-3.627,0.419
	c3.365,1.75,7.543,2.686,11.997,3.348c0.264-0.309-0.156-0.55-0.279-0.837c-0.325-0.763-0.561-1.583-0.836-2.232
	c-0.149-0.349-0.291-0.751-0.559-0.977C49.042,11.996,46.065,11.979,44.31,12.095z M108.059,11.676
	c-1.74,0.152-3.271,0.219-4.323,0.418c-0.638,0.121-1.531,0.004-1.674,0.558c0.002,1.042,1.222,0.674,1.674,0.837
	c1.926,0.693,2.817,2.638,4.603,3.347c-0.116-0.348-0.183-0.747-0.14-1.254c0.537-0.949,0.728-3.678,0-4.326
	C108.191,11.437,108.021,11.451,108.059,11.676z M57.283,11.816c-1.581,0-3.163,0-4.743,0c0.33,1.392,0.977,2.465,1.535,3.627
	c1.179-0.273,2.426-0.539,3.627-0.837c1.199-0.298,2.414-0.505,3.207-1.255c-1.078-0.689-2.083-1.451-3.207-2.093
	C57.725,11.606,57.488,11.695,57.283,11.816z M76.116,12.095c1.375-0.244,2.446-0.816,3.208-1.534
	c-1.445,0.004-2.762-0.123-3.627-0.698C75.68,10.762,75.973,11.354,76.116,12.095z M86.996,11.676
	c-0.15,0.593-1.096,0.393-1.396,0.837c0.245,0.267,0.296,0.727,0.419,1.116c1.633,0.385,3.414-0.186,5.302,0
	c0.115-0.616-0.624-0.811-0.838-0.977c-0.279-0.218-0.446-0.41-0.697-0.558c-0.112-0.067-0.282-0.199-0.419-0.279
	c-1.356-0.798-3.014-1.497-4.324-2.093C84.923,11.144,87.061,10.31,86.996,11.676z M65.653,11.119
	c1.674,0.464,3.309,0.968,4.884,1.534c-0.034-0.392-0.454-0.633-0.697-0.837c-0.718-0.599-1.739-1.25-2.373-1.674
	c-0.822-0.551-1.257-1.075-1.813-1.814C65.653,9.259,65.653,10.188,65.653,11.119z M51.842,9.863
	c1.748,0.021,3.097,1.18,4.883,0.698c-0.916-0.342-1.911-0.939-2.791-1.256c-0.347-0.125-0.874-0.146-1.116-0.279
	c-0.213-0.118-0.398-0.42-0.558-0.559c-0.235-0.205-0.458-0.402-0.697-0.558C51.503,8.713,51.722,9.239,51.842,9.863z
	 M108.338,2.527c0.164,2.169,0.071,4.18,1.115,5.3c0.306,0.328,0.459,0.737,1.117,0.558c0.396-0.333,0.139-0.514,0.14-1.116
	c0.261-0.157,0.672-0.165,0.559-0.698c-0.173-0.601-0.579-0.935-0.838-1.533c-0.35-0.809-0.509-1.879-0.697-2.79
	c-0.184-0.88-0.118-2.419-1.257-2.232C108.11,0.794,108.281,1.772,108.338,2.527z"/>
</svg>
