<?xml version="1.0" encoding="utf-8"?>
<svg version="1.2" baseProfile="tiny" id="Layer_1" xmlns="http://www.w3.org/2000/svg" xmlns:xlink="http://www.w3.org/1999/xlink"
	 x="0px" y="0px" width="530.43px" height="126.303px" viewBox="0 0 530.43 126.303" xml:space="preserve">
<path fill="#FFFF00" d="M209.22,0.25c-0.57,4.09-4.6,4.73-5,9c9.17,2.9,21.68,4.57,33,6c5.44,0.69,11.23-0.75,15,3
	c1.4,5.38-3.05,8.36-6,11c-8.42,7.52-21.92,12.11-34,16.99c14.67,14.13,34.46,24.569,52,37c8.32,5.899,16.99,12.52,24.99,19
	c3.49,2.819,8.54,6.33,12,10c3.31,3.49,8.07,8.14,6,13.99c-6.66,0.819-6.89-5.54-10-8.99c-1.53-1.71-4.06-3.311-6-5
	c-4.06-3.561-8.96-6.811-13.99-11c-0.3-0.25-0.729-1.88-1-2c-0.489-0.221-1.59,0.31-2,0c-7.83-5.88-15.14-11.76-23-17
	c-16.4-10.94-34.86-21.02-54.99-26c-0.84,2.59,3.51,5.24,5.99,8c1.74,1.93,4.18,3.62,6,6c0.54,0.7,0.38,2.26,1,3
	c4.57,5.41,12.28,10.58,10,19c-10.45,2.66-17.57-6.34-24.99-10c-3.3,3.37,1.81,15.149-3,17c-7.87-0.13-2.36-13.65-4-20
	c-5.46-6.311-13.48-9.75-21-14c-7.31-4.13-15.21-8.29-23-12c-1.33,4.78,2.25,10.13,4,15c1.96,5.45,3.12,11.05,6,15
	c0.87,3.87-2.44,3.56-3,6c0.08,4.33,2.1,6.62-2,8c-4.85-1.181-3.96-7.3-5-11c-3.11-11.08-6.78-24.71-9-37
	c-19.75,5.25-36.1,13.89-50.99,24c3.42,12.689,6.52,27.25,10,40c0.71,2.609,5.87,6.76,1,10.99c-5.55,0.689-5.56-5.36-7-8.99
	c-3.96-9.971-6.43-25.44-9-38c-6.03,1.63-7.01,8.319-15,8c-1.2-4.05,1.08-4.53,2-6c0.62-0.98,0.19-2.29,1-3
	c0.78-0.681,2.33-0.23,3-1c2.45-2.78,7.58-3.49,6-10c-2.12-1.62-4.24,3.16-7,4c-18.71,4.89-37.19,9.18-51.99,18
	c-5.81,3.46-10.6,8.29-16,12v-9c12.35-9.98,27.21-17.45,38-29c-10.46-3.88-26.39-2.27-38-5v-6c14.44,1.73,33.3,3.62,46.99,5
	c11.21,1.14,20.08,0.7,26,5C67.93,41.56,62,23.48,54.24,7.25c-6.1-1.9-12.67-3.33-16.99-7h20.99c1.12,3.15,5.19,3.98,8,5
	c8.18,2.95,18.85,5.48,28,9c11.89,4.57,23.04,10.58,34.99,14c1.29-7.06-6.21-18.98-3-28h8c7.58,6.42,15,13,23,19
	c9.61-6.72,19.43-13.23,30-19 M173.23,15.25c-1.48,0.95-2.52,1.95-4,3c-2.3,1.63-6.08,2.87-7,6c2.52,2.36,6.4,5.4,11,10
	c2.15,2.15,8.92,11.06,11,10.99c1.8-0.05,1.92-5.33,4-3c1.06-8.41,3.1-28.71-2-31.99c2.61-1.43,8.77-4.51,7-7
	C186.57,6.98,178.69,11.75,173.23,15.25z M193.23,72.24c5.62-0.271,9.6,6.359,12.99,5c-5.47-3.19-7.62-9.71-12.99-13
	C193.23,66.91,193.23,69.57,193.23,72.24z M147.23,36.25c3.48,1.18,7.5,1.83,8,5.99c-1.86,4.14-9.21,2.8-14,4
	c1.61,4.28,7.48,4.33,11,6c11.82,5.63,22.15,13.16,35,17c-0.41-4.26,0.96-10.3-1-13c-1.04-2.29-7.14,0.48-8-2
	c-0.83-2.82,1.41-2.59,1-5c-7-7.66-14.26-15.07-24-19.99C151.82,30.83,148.57,32.59,147.23,36.25z M196.23,36.25
	c12.91-5.42,28.36-8.31,39.99-15c-13.81,3.43-25.13-2.36-34-7C199.1,20.46,197.12,27.81,196.23,36.25z M135.23,24.25
	c0.59,2.69,1.17,7.46,4,8c3,1.29,7.59-4.39,10-7c-6.11-2.55-11.27-6.06-15-11C134.61,17.35,134.51,20.92,135.23,24.25z M81.24,65.24
	c14.86-7.8,25.65-19.67,38.99-28.99c0.85-2.16,6.38,0.37,7-2c-21.13-8.2-41.63-17.03-63.99-24C69.27,28.55,76.68,45.47,81.24,65.24z
	"/>
<path fill="#FFFF00" d="M375.2,0.25c1.7,8.02,22.069,2.67,28,0"/>
<path fill="#FFFF00" stroke="#000000" stroke-width="0.5" stroke-linecap="round" stroke-linejoin="round" d="M530.18,60.24
	c0,0.67,0,1.34,0,2"/>
<path fill="#FFFF00" d="M335.21,0.25c4.38,10.95,8.5,22.16,12,34c14.9-6.46,31.13-16.83,52.99-13c1.89-5.11,1.47-12.53,6-15
	c4.35,1.11,2.8,6.76,4,10c1.66,4.49,4.069,7.8,6,11c2.859-2.98-2.28-8.09,4-8c5.62,3.55,1.14,10.04,2,15
	c0.689,4.04,3.72,7.72,6,11.99c5.87,11.01,10.71,24.97,13,41c4.39-0.71,7.05-4.53,7.99-8c1.949-7.141,0.54-19.62,0-29
	c-0.681-12.03-3.051-32.29-7.99-41.99c-1.96-3.83-4.23-5.61-6-8h11.99c1.739,2.63,5.069,3.8,8,6c1.869,1.4,4.81,3.08,8,5
	c8.42,5.06,18.6,11.55,28,17c15.029,8.7,30.55,16.42,38.989,31.99v2c-9.939,2.46-18.71,3.279-27.989,6
	c-21.971,6.439-42.391,14.35-57,26c-2.37,1.89-4.94,8.24-9.99,5c-0.48-15.53-9.65-28.311-17-40c-3.54,8.37-2.851,19.17-11,21
	c-5.391,1.21-10.48-2.931-16-7c-13.181-9.71-29-24.75-40.99-30c1.42,6.27,3.61,12.8,6,19c2.24,5.83,7.73,13.149,4,18
	c-4.39,0.779-6.56-1.55-9-4c-2.26-2.271-3.45-6.771-5-9c-0.3-0.42-1.63-0.59-2-1c-0.75-0.8-0.33-2.04-1-3c-0.33-0.46-1.63-0.51-2-1
	c-0.65-0.86-0.42-2.23-1-3c-0.34-0.45-1.6-0.56-2-1c-0.74-0.78-0.32-2.1-1-3c-0.35-0.45-1.59-0.56-2-1c-0.74-0.78-0.32-2.09-1-3
	c-0.34-0.45-1.59-0.56-2-1c-0.729-0.78-0.32-2.1-1-3c-0.34-0.45-1.59-0.56-2-1c-0.75-0.8-0.32-2.06-1-3c-1.83-2.5-4.16-5.22-6-7.99
	c-3.7-5.59-7.56-11.21-11-17c-1.729,9.97-3.34,22.01-4,33.99c-0.32,5.8-1.2,12.54-1,18c0.26,6.99,5.72,15.33-1,20
	c-5.89-4.11-9-11-14-16c-3.8-3.8-8.82-6.79-13-10c-4.62-3.55-8.77-7.36-13.99-10c-0.09,3.7,0.11,8.42,0,13c-0.1,4.1,1.54,10.91-2,11
	c-5.3-1.51-2.86-8.99-3-13c-0.81-22.08,3.11-39.74,9-53.99c1.53-3.72,1.49-9.09,6-10c7.92,4.78,12.54,13.65,16.99,22
	c2.2,4.12,4.21,8.5,6,13c1.82,4.57,2.521,10.23,6,13.99c-0.13-11.48,1.12-24.82,3-32.99c0.64-2.79-0.31-8.08,4-8
	c3.93-0.16,4.04,4.45,5,6c0.37,0.6,1.58,1.34,2,2c0.95,1.48,1.01,3.37,2,5c0.9,1.48,3.07,2.59,4,4s1.13,3.67,2,5
	c1.28,1.94,4.17,4.75,5,6c1.59,2.39,2.64,5.78,6,5.99c-0.01-7.99,0.53-16.52-2-21.99c-3.52-3.49-11.09-2.91-13-8
	c0.84-4.16,2.58-7.42,2-13 M361.21,34.25c4.29,0.81,9.44,3.66,10.99,6c1.81,2.72,4.79,6.17,6,7.99c1.72,2.59,3.31,5.04,5,7
	c5.12,5.97,9.83,9.6,16,14c7.71-3.62,10.3-12.37,13-21c-4.76-6.24-7.83-14.17-11-21.99C384.21,25.25,370.83,27.87,361.21,34.25z
	 M454.19,79.24c20.27-9.07,41.29-17.37,55-33c-15.671-10.66-31.671-20.99-53-25.99c-1.37-2.3-4.11-3.22-6-5
	C454.72,32.74,456.95,57.78,454.19,79.24z M266.22,43.24c6.141-1.85,14.03-1.96,19.99-3.99c-3.09-8.57-10.99-12.34-11.99-23
	c-0.22-0.78-0.84-1.16-2-1C270.15,24.51,266.69,32.39,266.22,43.24z M375.2,0.25c9.34,0,18.67,0,28,0 M435.2,0.25
	c4,0,7.99,0,11.99,0 M323.21,0.25c4,0,8,0,12,0"/>
<path fill="#FFFF00" stroke="#000000" stroke-width="0.5" stroke-linecap="round" stroke-linejoin="round" d="M0.25,56.24
	c0-2,0-4,0-6"/>
<path fill="#FFFF00" stroke="#000000" stroke-width="0.5" stroke-linecap="round" stroke-linejoin="round" d="M0.25,99.24
	c0-3,0-6,0-9"/>
<path fill="#FFFF00" stroke="#000000" stroke-width="0.5" stroke-linecap="round" stroke-linejoin="round" d="M17.25,0.25
	c3.66,0,7.33,0,11,0"/>
<path fill="#FFFF00" d="M17.25,0.25c2.35,2.71,9.54,6.01,14,9c4.02,2.69,8.11,8.14,12.99,6c1.29-3.17-3.14-5.66-5.99-8
	c-3.22-2.64-7.49-4.6-10-7"/>
</svg>
